<?xml version="1.0" encoding="utf-8"?>
<!-- Generator: Adobe Illustrator 16.0.0, SVG Export Plug-In . SVG Version: 6.00 Build 0)  -->
<!DOCTYPE svg PUBLIC "-//W3C//DTD SVG 1.1//EN" "http://www.w3.org/Graphics/SVG/1.1/DTD/svg11.dtd" [
	<!ENTITY ns_extend "http://ns.adobe.com/Extensibility/1.0/">
	<!ENTITY ns_ai "http://ns.adobe.com/AdobeIllustrator/10.0/">
	<!ENTITY ns_graphs "http://ns.adobe.com/Graphs/1.0/">
	<!ENTITY ns_vars "http://ns.adobe.com/Variables/1.0/">
	<!ENTITY ns_imrep "http://ns.adobe.com/ImageReplacement/1.0/">
	<!ENTITY ns_sfw "http://ns.adobe.com/SaveForWeb/1.0/">
	<!ENTITY ns_custom "http://ns.adobe.com/GenericCustomNamespace/1.0/">
	<!ENTITY ns_adobe_xpath "http://ns.adobe.com/XPath/1.0/">
]>
<svg version="1.1" id="Layer_1" xmlns:x="&ns_extend;" xmlns:i="&ns_ai;" xmlns:graph="&ns_graphs;"
	 xmlns="http://www.w3.org/2000/svg" xmlns:xlink="http://www.w3.org/1999/xlink" x="0px" y="0px" width="240px" height="240px"
	 viewBox="0 0 240 240" enable-background="new 0 0 240 240" xml:space="preserve">
<metadata>
	<sfw  xmlns="&ns_sfw;">
		<slices></slices>
		<sliceSourceBounds  width="72" height="24" y="96" x="-120" bottomLeftOrigin="true"></sliceSourceBounds>
	</sfw>
</metadata>
<g>
	<path fill="#00985A" d="M3.819,11.508l4.252,2.074l-0.016,2.194L0,11.508l8.055-4.271l0.016,2.196L3.819,11.508z"/>
	<path fill="#00985A" d="M8.785,19.045l4.408-14.09h2.022l-4.39,14.09H8.785z"/>
	<path fill="#00985A" d="M15.945,15.776l-0.016-2.194l4.252-2.074l-4.252-2.075l0.016-2.196L24,11.508L15.945,15.776z"/>
</g>
<rect fill="none" width="24" height="24"/>
<g>
	<path fill="#FFFFFF" d="M27.819,11.508l4.252,2.074l-0.016,2.194L24,11.508l8.055-4.271l0.016,2.196L27.819,11.508z"/>
	<path fill="#FFFFFF" d="M32.785,19.045l4.408-14.09h2.022l-4.39,14.09H32.785z"/>
	<path fill="#FFFFFF" d="M39.945,15.776l-0.016-2.194l4.252-2.074l-4.252-2.075l0.016-2.196L48,11.508L39.945,15.776z"/>
</g>
<rect x="24" fill="none" width="24" height="24"/>
<g>
	<path fill="#231F20" d="M51.819,11.508l4.252,2.074l-0.016,2.194L48,11.508l8.055-4.271l0.016,2.196L51.819,11.508z"/>
	<path fill="#231F20" d="M56.785,19.045l4.408-14.09h2.022l-4.39,14.09H56.785z"/>
	<path fill="#231F20" d="M63.945,15.776l-0.016-2.194l4.252-2.074l-4.252-2.075l0.016-2.196L72,11.508L63.945,15.776z"/>
</g>
<rect x="48" fill="none" width="24" height="24"/>
</svg>
