<svg width="148" height="148" viewBox="0 0 148 148" fill="none" xmlns="http://www.w3.org/2000/svg">
<circle cx="74" cy="74" r="74" fill="white"/>
<path d="M8.96094 92.793V118.809H21.9688H69.6641V92.793H21.9688H8.96094ZM17.6328 123.145V131.816C17.6328 134.216 19.5695 136.152 21.9688 136.152C24.368 136.152 26.3047 134.216 26.3047 131.816V123.145C26.3047 120.745 24.368 118.809 21.9688 118.809C19.5695 118.809 17.6328 120.745 17.6328 123.145ZM126.031 118.809C123.632 118.809 121.695 120.745 121.695 123.145V131.816C121.695 134.216 123.632 136.152 126.031 136.152C128.43 136.152 130.367 134.216 130.367 131.816V123.145C130.367 120.745 128.43 118.809 126.031 118.809ZM126.031 23.418C123.632 23.418 121.695 25.3547 121.695 27.7539V88.457C121.695 90.8562 123.632 92.793 126.031 92.793C128.43 92.793 130.367 90.8562 130.367 88.457V27.7539C130.367 25.3547 128.43 23.418 126.031 23.418ZM26.3047 88.457V27.7539C26.3047 25.3547 24.368 23.418 21.9688 23.418C19.5695 23.418 17.6328 25.3547 17.6328 27.7539V88.457C17.6328 90.8562 19.5695 92.793 21.9688 92.793C24.368 92.793 26.3047 90.8562 26.3047 88.457Z" fill="#637282"/>
<path d="M143.664 84.1211H4.33594C1.90781 84.1211 0 86.0289 0 88.457V123.145C0 125.573 1.90781 127.48 4.33594 127.48H143.664C146.092 127.48 148 125.573 148 123.145V88.457C148 86.0289 146.092 84.1211 143.664 84.1211ZM21.9688 110.137C19.5406 110.137 17.6328 108.229 17.6328 105.801C17.6328 103.373 19.5406 101.465 21.9688 101.465C24.3969 101.465 26.3047 103.373 26.3047 105.801C26.3047 108.229 24.3969 110.137 21.9688 110.137ZM39.3125 110.137C36.8844 110.137 34.9766 108.229 34.9766 105.801C34.9766 103.373 36.8844 101.465 39.3125 101.465C41.7406 101.465 43.6484 103.373 43.6484 105.801C43.6484 108.229 41.7406 110.137 39.3125 110.137ZM56.6562 110.137C54.2281 110.137 52.3203 108.229 52.3203 105.801C52.3203 103.373 54.2281 101.465 56.6562 101.465C59.0844 101.465 60.9922 103.373 60.9922 105.801C60.9922 108.229 59.0844 110.137 56.6562 110.137Z" fill="#D7DCE1"/>
<path d="M73.9807 17.7129C80.2534 17.7129 86.3526 18.927 92.0182 21.2105L85.8034 28.177C82.0456 26.9918 78.0565 26.3559 73.9807 26.3559C63.5456 26.3559 53.7463 30.4027 46.3752 37.7738C44.6698 39.4793 41.9526 39.4793 40.2471 37.7738C38.5417 36.0684 38.5417 33.3223 40.2471 31.6457C49.2659 22.6559 61.2331 17.7129 73.9807 17.7129Z" fill="#2274E5"/>
<path d="M107.714 37.8023C106.009 39.5078 103.292 39.5078 101.586 37.8023C98.9556 35.1719 96.036 32.975 92.8853 31.2406L98.7821 24.6211C101.991 26.5867 104.997 28.9281 107.714 31.6742C109.391 33.3797 109.391 36.1258 107.714 37.8023Z" fill="#2274E5"/>
<path d="M79.2698 35.5187L71.8698 43.8437C67.0425 44.3062 62.3308 46.3875 58.6597 50.0875C56.9542 51.7929 54.237 51.7929 52.5315 50.0875C50.8261 48.382 50.8261 45.6648 52.5315 43.9594C59.787 36.675 69.8464 33.8711 79.2698 35.5187Z" fill="#2274E5"/>
<path d="M95.429 50.0879C93.7235 51.7934 91.0063 51.7934 89.3009 50.0879C86.8149 47.602 83.8665 45.8676 80.7446 44.827L86.9017 37.9473C89.9946 39.3926 92.8853 41.3871 95.4579 43.9598C97.1345 45.6363 97.1345 48.3824 95.429 50.0879Z" fill="#2274E5"/>
<path d="M83.1728 62.3441C81.4673 64.0496 78.7212 64.0496 77.0446 62.3441C75.3392 60.6387 72.5931 60.6387 70.9165 62.3441C69.2978 63.9629 66.6962 64.0207 64.9907 62.5176L74.0095 52.4004C77.3337 52.4004 80.6579 53.6723 83.2017 56.216C84.8782 57.8926 84.8782 60.6387 83.1728 62.3441Z" fill="#2274E5"/>
<rect x="101.403" y="10.7031" width="7.31639" height="75.9883" rx="3.6582" transform="rotate(41.7215 101.403 10.7031)" fill="#D7DCE1"/>
</svg>
