<svg width="24" height="24" viewBox="0 0 24 24" fill="none" xmlns="http://www.w3.org/2000/svg">
<path d="M12.0079 0.183594C7.07295 0.183594 5.62967 0.188685 5.34913 0.211957C4.3364 0.296139 3.70622 0.455594 3.01967 0.797412C2.49058 1.06014 2.07331 1.36468 1.66149 1.79159C0.911493 2.57014 0.456947 3.52796 0.292402 4.6665C0.212402 5.21923 0.189129 5.33196 0.184402 8.15523C0.182584 9.09632 0.184402 10.3349 0.184402 11.9961C0.184402 16.927 0.189856 18.3689 0.213493 18.6489C0.295311 19.6343 0.449856 20.2543 0.777129 20.9325C1.40258 22.2307 2.59713 23.2052 4.0044 23.5689C4.49167 23.6943 5.02986 23.7634 5.72077 23.7961C6.01349 23.8089 8.99713 23.818 11.9826 23.818C14.968 23.818 17.9535 23.8143 18.2389 23.7998C19.0389 23.7621 19.5035 23.6998 20.0171 23.567C21.4335 23.2016 22.6062 22.2416 23.2444 20.9252C23.5653 20.2634 23.728 19.6198 23.8017 18.6858C23.8177 18.4821 23.8244 15.2354 23.8244 11.993C23.8244 8.75014 23.8171 5.50941 23.8011 5.30578C23.7266 4.35669 23.5639 3.7185 23.2326 3.04396C22.9608 2.49178 22.6589 2.07941 22.2208 1.65778C21.4388 0.910866 20.4824 0.456321 19.3428 0.291957C18.7906 0.212139 18.6806 0.188503 15.8551 0.183594H12.0079Z" fill="url(#paint0_radial)"/>
<path d="M12.0079 0.183594C7.07295 0.183594 5.62967 0.188685 5.34913 0.211957C4.3364 0.296139 3.70622 0.455594 3.01967 0.797412C2.49058 1.06014 2.07331 1.36468 1.66149 1.79159C0.911493 2.57014 0.456947 3.52796 0.292402 4.6665C0.212402 5.21923 0.189129 5.33196 0.184402 8.15523C0.182584 9.09632 0.184402 10.3349 0.184402 11.9961C0.184402 16.927 0.189856 18.3689 0.213493 18.6489C0.295311 19.6343 0.449856 20.2543 0.777129 20.9325C1.40258 22.2307 2.59713 23.2052 4.0044 23.5689C4.49167 23.6943 5.02986 23.7634 5.72077 23.7961C6.01349 23.8089 8.99713 23.818 11.9826 23.818C14.968 23.818 17.9535 23.8143 18.2389 23.7998C19.0389 23.7621 19.5035 23.6998 20.0171 23.567C21.4335 23.2016 22.6062 22.2416 23.2444 20.9252C23.5653 20.2634 23.728 19.6198 23.8017 18.6858C23.8177 18.4821 23.8244 15.2354 23.8244 11.993C23.8244 8.75014 23.8171 5.50941 23.8011 5.30578C23.7266 4.35669 23.5639 3.7185 23.2326 3.04396C22.9608 2.49178 22.6589 2.07941 22.2208 1.65778C21.4388 0.910866 20.4824 0.456321 19.3428 0.291957C18.7906 0.212139 18.6806 0.188503 15.8551 0.183594H12.0079Z" fill="url(#paint1_radial)"/>
<path d="M12.0006 6C10.371 6 10.1665 6.00713 9.52654 6.03625C8.88778 6.0655 8.45178 6.16663 8.07027 6.315C7.67564 6.46825 7.34089 6.67325 7.00739 7.00688C6.67363 7.34038 6.46863 7.67512 6.31488 8.06962C6.16613 8.45125 6.06488 8.88738 6.03613 9.52588C6.0075 10.1659 6 10.3705 6 12C6 13.6295 6.00725 13.8334 6.03625 14.4734C6.06563 15.1121 6.16675 15.5481 6.315 15.9296C6.46838 16.3242 6.67338 16.659 7.00701 16.9925C7.34039 17.3263 7.67514 17.5318 8.06952 17.685C8.45128 17.8334 8.8874 17.9345 9.52604 17.9637C10.166 17.9929 10.3704 18 11.9998 18C13.6295 18 13.8333 17.9929 14.4733 17.9637C15.1121 17.9345 15.5486 17.8334 15.9304 17.685C16.3249 17.5318 16.6591 17.3263 16.9925 16.9925C17.3262 16.659 17.5312 16.3243 17.685 15.9298C17.8325 15.5481 17.9337 15.112 17.9637 14.4735C17.9925 13.8335 18 13.6295 18 12C18 10.3705 17.9925 10.166 17.9637 9.526C17.9337 8.88725 17.8325 8.45125 17.685 8.06975C17.5312 7.67512 17.3262 7.34038 16.9925 7.00688C16.6587 6.67313 16.325 6.46813 15.93 6.315C15.5475 6.16663 15.1112 6.0655 14.4725 6.03625C13.8325 6.00713 13.6287 6 11.9987 6H12.0006ZM11.4623 7.08125C11.6221 7.081 11.8003 7.08125 12.0006 7.08125C13.6026 7.08125 13.7925 7.087 14.4251 7.11575C15.0101 7.1425 15.3276 7.24025 15.5391 7.32238C15.8191 7.43113 16.0187 7.56112 16.2286 7.77112C16.4386 7.98112 16.5686 8.18112 16.6776 8.46112C16.7597 8.67237 16.8576 8.98987 16.8842 9.57487C16.913 10.2074 16.9192 10.3974 16.9192 11.9986C16.9192 13.5999 16.913 13.7899 16.8842 14.4224C16.8575 15.0074 16.7597 15.3249 16.6776 15.5361C16.5689 15.8161 16.4386 16.0155 16.2286 16.2254C16.0186 16.4354 15.8192 16.5654 15.5391 16.6741C15.3278 16.7566 15.0101 16.8541 14.4251 16.8809C13.7926 16.9096 13.6026 16.9159 12.0006 16.9159C10.3984 16.9159 10.2085 16.9096 9.57604 16.8809C8.99103 16.8539 8.67353 16.7561 8.4619 16.674C8.1819 16.5652 7.9819 16.4353 7.77189 16.2253C7.56189 16.0153 7.43189 15.8158 7.32289 15.5356C7.24076 15.3244 7.14289 15.0069 7.11626 14.4219C7.08751 13.7894 7.08176 13.5994 7.08176 11.9971C7.08176 10.3949 7.08751 10.2059 7.11626 9.57338C7.14301 8.98838 7.24076 8.67087 7.32289 8.45937C7.43164 8.17937 7.56189 7.97937 7.77189 7.76937C7.9819 7.55937 8.1819 7.42937 8.4619 7.32037C8.6734 7.23787 8.99103 7.14038 9.57604 7.1135C10.1295 7.0885 10.344 7.081 11.4623 7.07975V7.08125ZM15.2033 8.0775C14.8058 8.0775 14.4833 8.39962 14.4833 8.79725C14.4833 9.19475 14.8058 9.51725 15.2033 9.51725C15.6008 9.51725 15.9234 9.19475 15.9234 8.79725C15.9234 8.39975 15.6008 8.07725 15.2033 8.07725V8.0775ZM12.0006 8.91875C10.2989 8.91875 8.91928 10.2984 8.91928 12C8.91928 13.7016 10.2989 15.0806 12.0006 15.0806C13.7022 15.0806 15.0813 13.7016 15.0813 12C15.0813 10.2984 13.7021 8.91875 12.0004 8.91875H12.0006ZM12.0006 10C13.1051 10 14.0006 10.8954 14.0006 12C14.0006 13.1045 13.1051 14 12.0006 14C10.8959 14 10.0005 13.1045 10.0005 12C10.0005 10.8954 10.8959 10 12.0006 10Z" fill="white"/>
<defs>
<radialGradient id="paint0_radial" cx="0" cy="0" r="1" gradientUnits="userSpaceOnUse" gradientTransform="translate(6.46321 25.6383) rotate(-90) scale(23.4234 21.7915)">
<stop stop-color="#FFDD55"/>
<stop offset="0.1" stop-color="#FFDD55"/>
<stop offset="0.5" stop-color="#FF543E"/>
<stop offset="1" stop-color="#C837AB"/>
</radialGradient>
<radialGradient id="paint1_radial" cx="0" cy="0" r="1" gradientUnits="userSpaceOnUse" gradientTransform="translate(-3.77637 1.88617) rotate(78.6776) scale(10.4705 43.1706)">
<stop stop-color="#3771C8"/>
<stop offset="0.128" stop-color="#3771C8"/>
<stop offset="1" stop-color="#6600FF" stop-opacity="0"/>
</radialGradient>
</defs>
</svg>
