<svg width="24" height="24" viewBox="0 0 24 24" fill="none" xmlns="http://www.w3.org/2000/svg">
<circle cx="12" cy="12" r="12" fill="#1DA1F2"/>
<path d="M17.0766 9.4002C17.5766 9.0252 18.0266 8.5752 18.3766 8.0502C17.9266 8.2502 17.4016 8.4002 16.8766 8.4502C17.4266 8.1252 17.8266 7.6252 18.0266 7.0002C17.5266 7.3002 16.9516 7.5252 16.3766 7.6502C15.8766 7.1252 15.2016 6.8252 14.4516 6.8252C13.0016 6.8252 11.8266 8.0002 11.8266 9.4502C11.8266 9.6502 11.8516 9.8502 11.9016 10.0502C9.72656 9.9252 7.77656 8.8752 6.47656 7.3002C6.25156 7.6752 6.12656 8.1252 6.12656 8.6252C6.12656 9.5252 6.57656 10.3252 7.30156 10.8002C6.87656 10.7752 6.45156 10.6752 6.10156 10.4752V10.5002C6.10156 11.7752 7.00156 12.8252 8.20156 13.0752C8.00156 13.1252 7.75156 13.1752 7.52656 13.1752C7.35156 13.1752 7.20156 13.1502 7.02656 13.1252C7.35156 14.1752 8.32656 14.9252 9.47656 14.9502C8.57656 15.6502 7.45156 16.0752 6.22656 16.0752C6.00156 16.0752 5.80156 16.0502 5.60156 16.0252C6.75156 16.7752 8.12656 17.2002 9.62656 17.2002C14.4516 17.2002 17.0766 13.2252 17.0766 9.7502C17.0766 9.6252 17.0766 9.5252 17.0766 9.4002Z" fill="white"/>
</svg>
